<?xml version="1.0" standalone="no"?>
<!DOCTYPE svg PUBLIC "-//W3C//DTD SVG 20010904//EN"
 "http://www.w3.org/TR/2001/REC-SVG-20010904/DTD/svg10.dtd">
<svg version="1.0" xmlns="http://www.w3.org/2000/svg"
 width="632.000000pt" height="632.000000pt" viewBox="0 0 632.000000 632.000000"
 preserveAspectRatio="xMidYMid meet">
<metadata>
Created by potrace 1.14, written by Peter Selinger 2001-2017
</metadata>
<g transform="translate(0.000000,632.000000) scale(0.100000,-0.100000)"
fill="#000000" stroke="none">
<path d="M3054 5365 c-28 -14 -60 -35 -71 -48 -19 -19 -2554 -4174 -2599
-4258 -26 -48 -24 -151 3 -204 25 -47 74 -95 123 -121 34 -18 119 -19 2650
-19 2531 0 2616 1 2650 19 49 26 98 74 123 121 27 52 29 155 3 204 -40 76
-2580 4238 -2599 4258 -37 41 -116 73 -177 73 -40 0 -71 -7 -106 -25z m-573
-2161 c129 -38 256 -140 313 -252 80 -158 74 -362 -13 -406 -51 -27 -103 -20
-224 31 -106 45 -117 48 -202 48 -85 0 -96 -3 -202 -48 -121 -51 -173 -58
-224 -31 -87 45 -93 256 -11 408 38 70 131 167 193 201 118 64 257 82 370 49z
m1620 0 c132 -39 257 -141 313 -256 58 -121 73 -266 35 -345 -42 -88 -109 -94
-272 -27 -174 72 -251 71 -424 -7 -90 -41 -166 -48 -211 -19 -45 28 -62 74
-62 168 0 194 103 362 278 452 96 50 240 64 343 34z m-808 -748 c74 -36 158
-127 188 -203 14 -38 24 -89 27 -145 4 -80 2 -93 -23 -143 -36 -73 -89 -106
-186 -113 l-69 -5 0 -209 c0 -228 6 -257 55 -296 19 -15 42 -22 72 -22 37 0
50 5 73 30 26 28 50 99 50 150 0 24 46 60 77 60 13 0 36 -12 50 -26 24 -24 25
-31 21 -92 -12 -163 -125 -282 -268 -282 -68 0 -110 13 -167 52 l-43 29 -42
-29 c-58 -39 -100 -52 -168 -52 -143 0 -256 119 -268 282 -4 61 -3 68 21 92
14 14 37 26 50 26 31 0 77 -36 77 -60 0 -51 24 -122 50 -150 54 -58 153 -33
186 46 10 25 14 87 14 242 l0 209 -69 5 c-97 7 -150 40 -186 113 -25 50 -27
63 -23 143 7 126 35 190 117 273 86 86 145 111 252 106 58 -3 90 -10 132 -31z
m-1160 -496 c221 -37 244 -43 265 -66 28 -31 28 -64 1 -98 -27 -35 -42 -34
-332 15 -268 44 -287 52 -287 116 0 44 30 73 76 73 19 0 144 -18 277 -40z
m2367 20 c28 -28 26 -81 -3 -108 -18 -17 -66 -28 -264 -61 -290 -49 -305 -50
-332 -15 -27 34 -27 67 2 98 20 23 43 29 252 65 273 46 317 49 345 21z m-2105
-325 c30 -29 32 -73 5 -102 -25 -27 -11 -24 -308 -74 l-253 -42 -27 20 c-20
15 -28 30 -30 60 -5 65 7 71 280 119 293 51 301 51 333 19z m1823 -17 c290
-47 305 -54 300 -121 -2 -30 -10 -45 -29 -60 l-27 -19 -253 42 c-140 22 -266
46 -280 51 -28 11 -49 46 -49 80 0 25 43 69 67 69 10 0 132 -18 271 -42z"/>
<path d="M2249 3047 c-129 -48 -216 -161 -227 -293 l-5 -64 84 35 c197 85 309
85 507 2 l82 -35 0 49 c0 108 -76 226 -182 284 -44 24 -67 30 -138 32 -54 2
-98 -2 -121 -10z"/>
<path d="M3869 3046 c-82 -29 -158 -96 -198 -174 -21 -41 -45 -157 -36 -172 3
-5 36 5 72 21 198 89 323 90 522 5 l83 -36 -4 59 c-9 125 -100 248 -214 291
-63 23 -169 26 -225 6z"/>
<path d="M3080 2319 c-73 -29 -130 -128 -130 -225 0 -89 0 -89 200 -89 200 0
200 0 200 89 0 99 -58 197 -133 225 -35 13 -103 13 -137 0z"/>
</g>
</svg>
